<svg version="1.1" id="Layer_1" xmlns="http://www.w3.org/2000/svg" xmlns:xlink="http://www.w3.org/1999/xlink" x="0px" y="0px" width="100%" viewBox="0 0 1204 1073" enable-background="new 0 0 1204 1073" xml:space="preserve">

<path fill="#3677F7" opacity="1.000000" stroke="none" d="
M89.038467,257.013885 
	C85.931908,252.221085 82.133804,247.729874 79.881233,242.564636 
	C76.519592,234.856247 73.199425,226.859665 71.735825,218.651505 
	C68.941330,202.979401 78.306816,188.865768 94.104652,182.793228 
	C108.070045,177.425079 122.481140,177.641983 136.986771,179.517120 
	C156.348526,182.020020 174.560806,188.233246 191.985260,196.895248 
	C224.564072,213.090744 243.454010,250.649918 236.856628,286.084839 
	C231.922119,312.588440 210.748032,330.818756 183.812119,331.893677 
	C163.845795,332.690491 144.773407,328.662628 126.113991,321.873260 
	C98.203941,311.718048 71.709335,299.209045 49.905437,278.338226 
	C35.820637,264.856201 24.781803,249.459015 19.037756,230.667068 
	C17.841219,226.752533 17.221621,222.546387 17.079510,218.448837 
	C16.785120,209.960663 17.342781,201.437134 16.909578,192.960861 
	C16.205982,179.193848 21.071310,167.503769 29.361906,156.987946 
	C44.568886,137.699356 64.844582,127.159019 88.792900,123.397614 
	C99.075172,121.782646 109.071732,124.112747 118.714211,127.512413 
	C132.511749,132.377029 146.761963,136.458649 159.746582,143.002365 
	C176.342697,151.366104 192.142990,161.425385 207.809357,171.495850 
	C256.016388,202.483643 299.681976,239.322067 342.479279,277.225739 
	C354.434143,287.813599 366.081818,298.748230 378.185608,309.811890 
	C379.871521,308.551392 381.595764,307.052460 383.514526,305.868866 
	C388.303101,302.915100 391.875519,304.583435 394.069214,309.656982 
	C395.585785,313.164520 398.309845,316.149963 400.561310,319.467438 
	C457.699585,283.697632 518.807983,262.549133 587.009460,264.967041 
	C588.579712,255.707779 595.774963,255.045120 602.672119,255.238297 
	C608.201416,255.393158 610.815369,253.465912 613.801392,248.775986 
	C619.834839,239.299561 627.247986,230.702393 634.078979,221.732605 
	C639.828979,214.182358 645.533325,206.597275 651.304565,199.063309 
	C680.005188,161.596100 711.090515,126.176300 743.300903,91.711403 
	C765.988647,67.435684 790.765564,45.409214 816.143311,24.061031 
	C821.660095,19.420195 828.539856,16.389214 834.829224,12.680037 
	C841.128784,8.964846 847.474915,5.328813 853.900330,1.329040 
	C863.687561,1.000000 873.375122,1.000000 883.531372,0.999989 
	C874.751526,5.835468 865.490234,10.646638 856.264038,15.524160 
	C854.059265,16.689762 852.102478,18.411518 849.809204,19.309298 
	C828.941956,27.478601 813.383484,42.957027 797.087097,57.414406 
	C754.436584,95.251976 717.276306,138.217880 681.051331,182.032120 
	C668.740723,196.921921 656.456787,211.880814 645.082764,227.480423 
	C638.300415,236.782455 633.310181,247.391113 627.416382,257.581665 
	C639.969604,260.399445 640.771912,261.383484 639.986023,272.315948 
	C649.594177,274.841156 659.375732,276.854828 668.761780,280.035553 
	C678.332886,283.278931 687.492065,287.726379 696.875732,291.538116 
	C703.314148,294.153442 709.989441,296.243225 716.251099,299.215973 
	C720.397095,301.184235 724.054016,304.221558 727.832336,306.917053 
	C736.765381,313.289917 745.881592,319.443512 754.428162,326.303162 
	C758.234802,329.358337 760.848694,333.900391 764.000671,337.770264 
	C778.809387,355.951996 795.334656,373.014404 804.384766,395.135834 
	C809.534119,407.722473 814.477966,420.567596 817.622803,433.747650 
	C820.411804,445.436188 820.374329,457.776825 821.981567,469.776428 
	C823.349792,479.990295 825.283569,490.128418 827.037048,500.722473 
	C829.711182,500.444458 832.468384,500.154663 835.226257,499.871948 
	C839.752502,499.407867 842.603455,501.102997 843.312988,505.880249 
	C845.122131,518.061401 847.564758,530.177734 848.739624,542.417297 
	C850.648499,562.303650 852.252869,582.247498 853.047668,602.204468 
	C853.856140,622.506958 853.609436,642.854675 853.610474,663.182556 
	C853.610596,666.008362 852.383850,668.834229 851.665405,671.916138 
	C870.068298,680.629272 876.534485,697.471130 879.630066,716.445496 
	C882.415283,733.518127 883.984863,750.619507 877.943542,767.320740 
	C872.013916,783.713074 863.533325,798.602478 848.663635,808.558350 
	C843.960815,811.707275 838.056641,813.035278 832.775879,815.363525 
	C831.140625,816.084412 828.778259,817.073975 828.387634,818.417175 
	C820.265564,846.343140 799.284180,861.140442 774.333374,872.088196 
	C746.651306,884.234375 718.306885,887.470703 689.079407,878.647461 
	C685.566406,877.586914 684.456299,878.655029 683.322021,881.685364 
	C674.270203,905.867249 658.804688,926.088806 641.386230,944.429077 
	C627.272949,959.289246 610.315369,971.455811 589.849915,976.547607 
	C572.994385,980.741333 555.711792,979.013123 538.586731,977.602173 
	C532.445251,977.096191 526.323547,976.337830 520.199219,975.638672 
	C504.875305,973.889404 493.229279,965.033325 481.619659,955.918213 
	C471.278381,947.798828 460.715363,939.950623 450.059113,932.247070 
	C440.604309,925.411987 435.995331,915.066284 430.261963,905.585327 
	C427.013367,900.213318 424.346344,894.363464 422.324463,888.420349 
	C420.989594,884.496582 419.196930,884.128845 415.763153,884.917114 
	C400.611450,888.395386 386.964478,895.234436 374.035400,903.586121 
	C359.568390,912.931213 345.815887,923.120789 336.767517,938.395020 
	C338.912750,942.778198 341.160614,947.211426 343.269226,951.709900 
	C349.175293,964.310242 348.664703,976.940796 342.912476,989.378906 
	C334.079895,1008.477722 321.547821,1023.278931 298.842590,1025.348633 
	C294.576599,1025.737427 290.071106,1025.835938 285.932983,1024.914795 
	C257.180115,1018.513733 236.651337,1002.428528 229.105911,973.130127 
	C224.386856,954.806274 231.698013,939.262451 244.742111,926.648010 
	C257.452026,914.356689 273.233917,909.916199 290.738129,911.730408 
	C294.106049,912.079468 296.681366,912.268433 298.262146,908.247803 
	C298.880707,906.674561 301.809937,905.871948 303.814758,905.019165 
	C305.955963,904.108215 308.715698,904.120667 310.392151,902.741455 
	C316.937683,897.356445 323.268829,891.695984 329.485260,885.928406 
	C352.610901,864.472656 378.799500,848.605774 409.863708,841.581665 
	C413.054535,840.860168 416.336029,840.539917 419.764862,840.003845 
	C419.690704,840.213928 419.783875,840.059753 419.796234,839.899231 
	C420.733765,827.724792 420.765411,827.654419 409.834717,822.660950 
	C380.380371,809.205261 352.111237,793.702515 325.804901,774.716614 
	C309.385162,762.866211 307.801086,761.385681 298.749420,742.150269 
	C278.234528,698.554565 262.533417,653.404541 255.548370,605.530273 
	C252.460220,584.364441 252.076248,563.144897 252.981949,541.727966 
	C254.076080,515.855042 259.065002,491.059540 269.106415,467.324158 
	C277.393982,447.734375 288.990051,429.992676 301.937439,413.211273 
	C312.506500,399.512482 323.541199,386.161163 334.690491,372.926300 
	C341.041443,365.387299 348.036163,358.390594 354.517517,351.391052 
	C353.410095,349.937195 350.622833,347.861908 350.328125,345.478394 
	C349.982513,342.683014 351.115936,339.115295 352.828857,336.776947 
	C356.451752,331.831177 360.860565,327.459930 364.963959,322.868134 
	C366.165710,321.523407 367.424469,320.229675 369.168518,318.366089 
	C359.024078,309.237244 349.403687,300.068634 339.247742,291.537628 
	C309.917999,266.900635 280.389008,242.500565 250.891632,218.063736 
	C247.047058,214.878738 242.902939,212.057602 238.947723,209.003006 
	C236.345810,206.993546 234.304642,204.776413 230.205444,206.818481 
	C227.024628,208.403015 224.359406,205.293961 223.838623,201.272400 
	C223.605698,199.473709 222.596573,197.146393 221.180817,196.224838 
	C201.497452,183.412369 181.741730,170.707596 161.843079,158.232681 
	C158.380081,156.061661 154.209183,154.985321 150.311646,153.548843 
	C141.262344,150.213623 131.695419,147.905197 123.200119,143.513474 
	C94.823494,128.843872 65.843529,140.880707 47.798607,156.385925 
	C22.931610,177.753052 24.746635,212.838181 33.899033,234.160660 
	C42.126530,253.328430 55.691284,268.104492 72.214546,280.005341 
	C97.820686,298.448181 126.515152,310.414642 157.446976,316.530975 
	C166.010590,318.224304 175.019592,318.492096 183.782196,318.190796 
	C206.477280,317.410309 223.298828,300.611450 224.982849,277.876556 
	C227.191666,248.057266 212.360550,221.860001 185.451263,208.481079 
	C164.441742,198.035431 142.330582,191.310944 118.688126,192.072235 
	C110.748177,192.327911 102.551399,194.475662 95.098358,197.370972 
	C86.664101,200.647400 83.180748,208.851974 84.442650,217.856827 
	C86.049660,229.324402 91.245438,239.148804 99.151375,247.335526 
	C114.303673,263.025909 132.408066,273.942474 153.887589,278.492401 
	C161.690445,280.145264 169.218094,278.761169 174.836899,272.176331 
	C177.923141,268.559509 178.921188,264.500275 176.694794,260.133789 
	C171.644302,250.228470 163.491653,244.050156 152.935303,240.934448 
	C149.744278,239.992584 146.427032,239.448166 143.286209,238.374695 
	C139.955963,237.236481 137.979843,234.733994 138.529572,231.087799 
	C139.098328,227.315338 141.871246,225.771637 145.413986,225.965958 
	C164.946121,227.037292 183.289108,241.170776 189.122650,256.365570 
	C195.816666,273.801636 181.163315,289.701691 165.461166,291.903717 
	C154.532990,293.436157 144.296677,290.803558 134.347839,286.590759 
	C117.598709,279.498444 102.655037,269.681976 89.348099,256.945312 
	C89.002190,257.000977 89.038467,257.013885 89.038467,257.013885 
M796.396423,752.002563 
	C796.437988,751.794556 796.479553,751.586609 796.521057,751.378540 
	C796.359375,751.595581 796.197693,751.812622 795.499451,752.110962 
	C795.337280,752.412231 795.175110,752.713562 794.350159,753.089050 
	C792.591736,754.742249 790.833313,756.395386 788.481018,758.352051 
	C773.607361,771.693115 758.689453,784.985413 743.885559,798.403442 
	C739.081360,802.757751 733.891357,805.974304 727.295471,806.781067 
	C723.344482,807.264343 719.455444,808.265869 715.544983,809.065613 
	C705.662781,811.086792 695.784180,813.125671 685.744568,815.190247 
	C686.689636,819.555969 687.763855,823.242920 688.222046,827.004944 
	C688.653564,830.548035 690.372009,831.919250 693.754761,831.824585 
	C705.551392,831.494385 717.418152,831.908325 729.132446,830.758118 
	C753.407471,828.374634 773.136353,816.838806 789.059937,799.091675 
	C787.265991,795.054016 785.180847,791.407227 783.994324,787.488220 
	C780.824890,777.020752 784.710449,767.904968 790.726257,758.871826 
	C792.144653,756.908752 793.563110,754.945679 795.568359,752.968140 
	C795.700256,752.632690 795.832153,752.297241 796.396423,752.002563 
M799.585999,749.924866 
	C800.219910,749.435486 800.853821,748.946106 802.156433,748.214783 
	C811.727966,746.067993 811.071167,737.636780 813.093445,732.413147 
	C809.463196,736.934998 805.118225,742.347107 800.180420,747.999939 
	C799.803833,748.683411 799.427246,749.366821 798.618774,749.974304 
	C798.568298,750.181763 798.517883,750.389160 798.467407,750.596619 
	C798.637451,750.385925 798.807434,750.175293 799.585999,749.924866 
M785.882751,386.651855 
	C776.093872,374.040009 766.427795,361.329956 756.460205,348.860962 
	C752.011353,343.295624 747.491333,337.578400 742.080200,333.028290 
	C722.227234,316.334473 699.671204,304.397919 674.975464,296.437408 
	C649.126221,288.105103 623.234131,280.128754 595.890808,278.170074 
	C541.944092,274.305634 491.141968,286.155701 443.324799,310.288483 
	C420.506134,321.804749 399.131775,336.184967 377.130096,349.312988 
	C375.716064,350.156738 374.439514,351.293579 373.259979,352.457306 
	C365.946350,359.672791 358.888977,367.162231 351.352142,374.134399 
	C335.704834,388.609314 323.273651,405.727264 310.683868,422.727081 
	C296.661774,441.660950 284.242737,461.538391 275.943970,483.722015 
	C269.658539,500.523560 267.612579,517.971924 266.353302,535.870483 
	C264.692932,559.469360 265.083588,582.788635 268.519104,606.112610 
	C273.642151,640.893372 284.088226,674.221130 297.044067,706.749817 
	C303.310150,722.482300 310.819794,737.729248 318.059418,753.057556 
	C319.878906,756.909973 322.060211,761.035583 327.642792,760.915527 
	C328.906952,760.888306 330.255219,762.256287 331.474243,763.111145 
	C335.427490,765.883484 339.254242,768.843384 343.279541,771.504395 
	C371.962982,790.465881 402.269470,806.461365 433.569336,820.611206 
	C435.933075,821.679810 438.614746,822.646484 441.146790,822.641846 
	C455.303314,822.615845 469.488678,822.774414 483.609344,821.940857 
	C513.538818,820.174011 543.470154,818.239929 573.334229,815.617126 
	C604.333374,812.894531 635.358459,810.036743 666.172791,805.790771 
	C687.395264,802.866455 708.289856,797.532776 729.295959,793.109924 
	C731.588684,792.627197 734.040405,791.472656 735.758240,789.905945 
	C753.853882,773.401855 771.402161,756.267212 790.007507,740.366882 
	C797.972412,733.559875 802.402649,725.847351 805.080811,716.117676 
	C811.795288,691.724060 814.176575,666.752686 816.438782,641.686218 
	C820.790649,593.466187 816.664551,545.454407 813.141052,497.461365 
	C811.901978,480.583405 808.510376,463.829437 805.521423,447.122650 
	C801.804565,426.347015 798.664673,405.297089 785.882751,386.651855 
M596.362915,961.037292 
	C613.682495,951.528076 630.161621,940.999329 641.958618,924.552246 
	C646.711548,917.925903 651.887939,911.603943 656.664856,904.994080 
	C673.013855,882.371460 679.382874,857.150513 675.798645,829.486755 
	C675.297546,825.619019 673.926941,821.863892 672.973999,818.116150 
	C655.643799,820.130493 639.009583,822.063904 623.118530,823.910950 
	C622.216553,827.240295 622.033630,830.030701 620.782532,832.207092 
	C608.181335,854.128662 588.903137,867.398193 564.288147,870.786499 
	C547.440186,873.105591 530.883606,868.048523 516.042603,859.447144 
	C505.526581,853.352295 495.475189,846.375244 490.320923,833.870239 
	C471.073761,833.870239 451.563538,833.870239 431.947784,833.870239 
	C431.947784,845.193298 432.084686,856.669128 431.917908,868.140564 
	C431.614349,889.020081 443.681091,904.276245 455.145630,919.821899 
	C455.816162,920.731079 456.886139,921.361023 457.814545,922.062256 
	C470.694183,931.789978 483.675385,941.386414 496.433777,951.270508 
	C504.786804,957.741638 513.805786,962.368103 524.465942,963.230164 
	C537.073975,964.249634 549.675354,965.556335 562.306152,966.026550 
	C573.619141,966.447693 584.979675,965.983459 596.362915,961.037292 
M272.701599,1006.830994 
	C280.863708,1010.819885 289.127716,1013.809082 298.578705,1012.620789 
	C314.559082,1010.611511 323.190033,1000.017822 329.981293,986.945862 
	C335.475586,976.370361 336.483368,965.605530 330.771576,954.897400 
	C324.866730,943.827271 319.812286,932.227661 306.366455,927.331299 
	C285.994781,919.912903 265.043549,923.550049 251.340942,937.944153 
	C240.181122,949.667114 238.059708,964.838684 244.945145,979.412659 
	C250.784470,991.772339 258.690918,1001.772888 272.701599,1006.830994 
M854.396790,689.080750 
	C844.970337,680.885681 839.473022,682.033447 835.273743,693.799500 
	C832.885132,700.492065 831.836304,707.652405 829.976013,714.545959 
	C826.474792,727.519531 823.075867,740.530334 819.126465,753.369385 
	C817.161621,759.756836 815.459290,760.225281 808.742676,759.211243 
	C807.866455,759.078979 806.762939,759.277100 806.002625,759.725647 
	C792.493347,767.694763 791.378723,786.586975 804.258240,795.494629 
	C818.667969,805.460693 837.017090,806.563721 849.790039,790.933777 
	C851.370117,789.000305 853.018921,787.117493 854.509094,785.116760 
	C868.659363,766.118469 871.685547,744.822693 867.579102,722.018188 
	C865.479736,710.359192 863.774048,698.584473 854.396790,689.080750 
M692.484558,843.196655 
	C690.146545,842.793945 689.291077,843.683105 689.207825,846.137024 
	C689.016479,851.782349 688.327576,857.413513 688.230347,863.057129 
	C688.208130,864.349670 689.527100,866.550842 690.623718,866.840942 
	C702.387817,869.953186 714.303040,872.365051 726.574707,871.317993 
	C752.603760,869.097168 775.965454,859.761169 796.883179,844.282898 
	C806.901978,836.869507 812.056763,826.233032 815.832642,815.020386 
	C809.712158,812.414062 804.100830,810.024536 799.502502,808.066406 
	C790.548401,815.204041 782.525757,822.859497 773.339661,828.678345 
	C748.795654,844.225403 721.345642,845.610352 692.484558,843.196655 
M327.695496,904.212830 
	C322.663055,908.449951 317.630615,912.687134 312.519165,916.990784 
	C318.102417,920.155762 323.645111,923.297729 328.665894,926.143860 
	C353.223785,897.968506 383.240570,879.965759 419.631409,872.010620 
	C419.631409,865.645264 419.631409,859.092285 419.631409,852.395508 
	C383.377289,859.606689 353.618195,877.797241 327.695496,904.212830 
M830.862061,581.629822 
	C830.042358,609.342712 829.222656,637.055542 828.395813,665.009155 
	C830.997253,664.642822 834.233826,664.098206 837.491638,663.755737 
	C840.196960,663.471313 841.048645,662.140198 840.968140,659.464783 
	C839.992676,627.034790 838.933960,594.605286 838.337646,562.167603 
	C838.217957,555.659302 834.994873,552.781921 830.824951,550.970459 
	C830.824951,560.746765 830.824951,570.707214 830.862061,581.629822 
M828.008911,528.491882 
	C827.170715,534.575989 830.907349,537.401306 836.600098,540.054321 
	C835.389526,530.244019 834.269775,521.169495 833.199585,512.496887 
	C828.108887,511.440460 826.685547,513.170532 827.174927,517.146667 
	C827.600952,520.608398 827.706665,524.109558 828.008911,528.491882 
z" data-index="1" style="opacity: 1;"></path>
<path fill="#3677F7" opacity="1.000000" stroke="none" d="
M946.531372,1.000006 
	C947.604065,1.715773 948.087952,2.603219 948.829590,3.122519 
	C976.696533,22.634077 983.974426,50.294254 978.359680,81.912231 
	C973.092896,111.571121 954.779663,133.543762 932.449341,152.502396 
	C928.799988,155.600677 924.938721,158.449249 921.545776,162.260803 
	C923.059082,161.882782 924.566040,161.477020 926.086609,161.130707 
	C981.103027,148.600998 1036.069824,135.845444 1091.174072,123.714600 
	C1104.949219,120.682121 1119.151855,119.528938 1133.200806,117.875977 
	C1135.137085,117.648148 1137.253418,120.074249 1139.403198,120.345848 
	C1149.830078,121.663155 1150.788208,129.917603 1152.576660,137.675140 
	C1162.621826,181.244690 1168.610962,225.461502 1173.890137,269.803131 
	C1174.782227,277.296021 1172.078979,283.624695 1168.506226,289.524292 
	C1166.958374,292.080292 1163.288696,294.361450 1160.266846,294.862640 
	C1117.715332,301.919739 1075.122314,308.731445 1032.510986,315.421906 
	C1010.793884,318.831757 989.000000,321.755310 967.290649,325.211639 
	C963.511414,325.813324 959.512939,327.315552 956.408142,329.518555 
	C930.194458,348.117828 904.169861,366.983521 878.070496,385.744110 
	C876.044434,387.200470 874.036987,389.085419 871.742126,389.662689 
	C868.899841,390.377686 864.910950,391.097290 862.987244,389.681671 
	C860.850098,388.109009 859.271912,383.990234 859.597412,381.233459 
	C860.252441,375.684479 862.143127,370.234619 863.912903,364.872192 
	C871.314636,342.445099 878.427063,319.906067 886.581116,297.752441 
	C889.557739,289.665527 889.386169,282.697845 887.352478,274.501404 
	C881.310669,250.151398 879.177734,225.238754 879.597595,200.148605 
	C879.674622,195.546997 880.462585,190.957291 880.905334,186.532913 
	C871.317200,189.904327 861.918762,193.621765 852.269287,196.496323 
	C840.542053,199.989822 828.485718,201.853867 816.231995,199.650131 
	C792.339966,195.353302 774.120361,175.495636 770.964844,149.971832 
	C766.953125,117.521187 778.907288,91.879944 805.233154,72.954391 
	C826.491394,57.671959 849.835999,46.927994 876.044373,43.697304 
	C883.212341,42.813713 890.770630,43.076145 897.899719,44.285892 
	C917.267822,47.572464 927.896790,62.906578 925.488586,82.876450 
	C923.584167,98.669167 916.643982,112.092995 905.954102,123.629486 
	C892.103088,138.577438 876.702942,151.474503 856.735779,157.420624 
	C845.049805,160.900620 833.967224,159.464188 824.416565,151.082642 
	C817.158997,144.713470 814.555481,136.587997 817.373901,127.598457 
	C823.082214,109.391281 836.336548,98.758156 854.202637,93.478333 
	C857.531677,92.494553 860.672546,93.617279 861.949402,97.194618 
	C863.218018,100.748726 861.531738,103.416580 858.363403,105.017159 
	C854.209045,107.115845 849.815063,108.761742 845.750244,111.011040 
	C839.139587,114.669044 834.405212,120.272659 831.119507,126.984428 
	C827.121521,135.151321 829.722778,142.281708 838.489929,144.692657 
	C843.362549,146.032593 849.508179,146.490295 854.039551,144.704895 
	C879.943115,134.498810 900.312073,117.927635 910.577454,91.130661 
	C912.204773,86.882553 912.719788,82.024055 912.848206,77.422615 
	C913.158875,66.290680 907.282654,59.324627 896.323120,56.943714 
	C883.674927,54.195961 871.462769,56.646996 859.388428,60.175243 
	C841.449280,65.417259 824.976746,73.775406 810.194092,85.116524 
	C789.497375,100.994827 779.960266,122.120758 783.744202,148.160889 
	C787.948181,177.091522 809.578857,191.842667 838.446106,186.589569 
	C865.519165,181.662949 888.534851,168.111877 910.808655,152.943634 
	C929.367859,140.304947 945.329102,125.031883 956.277405,105.252930 
	C970.441345,79.664810 972.621399,53.388790 956.379089,28.032049 
	C946.889465,13.217290 931.516113,5.875491 914.583313,1.992688 
	C913.613159,1.770229 912.645020,1.538693 911.338013,1.155685 
	C922.687561,1.000000 934.375122,1.000000 946.531372,1.000006 
M877.763977,369.984314 
	C900.795227,353.539948 923.876099,337.164337 946.823608,320.603912 
	C952.726685,316.343933 958.458618,314.028290 966.239380,313.023041 
	C998.561523,308.847137 1030.628052,302.715210 1062.814941,297.463196 
	C1093.036621,292.531891 1123.280640,287.734955 1153.539917,283.039276 
	C1160.625854,281.939667 1162.001709,280.966583 1161.161377,273.840332 
	C1158.900757,254.669708 1156.831543,235.458145 1153.829712,216.397736 
	C1149.586304,189.453354 1144.536011,162.636551 1139.931030,135.748001 
	C1139.254028,131.794495 1137.809082,130.147186 1133.386108,130.822128 
	C1119.405884,132.955521 1105.160645,133.733810 1091.376343,136.700974 
	C1042.430908,147.236832 993.566772,158.175781 944.822205,169.603333 
	C930.310730,173.005356 916.247742,178.377426 902.070129,183.118454 
	C896.202271,185.080627 892.714722,189.295578 892.711670,195.853775 
	C892.708069,203.671204 892.400330,211.496689 892.657166,219.304459 
	C893.392151,241.653656 895.587219,263.806305 902.395691,285.277954 
	C902.926941,286.953156 903.278870,289.000275 902.821350,290.622803 
	C899.847900,301.167908 896.925598,311.744171 893.418335,322.118164 
	C888.044434,338.013885 882.211914,353.754578 876.256165,369.907471 
	C876.332520,370.179047 876.408875,370.450592 876.485168,370.722168 
	C876.684021,370.511475 876.882935,370.300812 877.763977,369.984314 
z" data-index="2" style="opacity: 1;"></path>
<path fill="#3778F7" opacity="1.000000" stroke="none" d="
M88.995911,256.982971 
	C88.896606,258.189178 89.202560,259.655426 88.634666,260.591553 
	C87.025383,263.244324 85.548721,266.781403 83.088005,267.876587 
	C80.847656,268.873718 76.963585,267.836975 74.568565,266.411896 
	C71.499527,264.585754 71.879784,259.463654 75.040916,258.105011 
	C79.276268,256.284637 83.811462,253.676117 88.724953,257.291168 
	C89.038467,257.013885 89.002190,257.000977 88.995911,256.982971 
z" data-index="3"></path>

<path fill="#FEFEFF" opacity="1.000000" stroke="none" d="
M596.014404,961.196167 
	C584.979675,965.983459 573.619141,966.447693 562.306152,966.026550 
	C549.675354,965.556335 537.073975,964.249634 524.465942,963.230164 
	C513.805786,962.368103 504.786804,957.741638 496.433777,951.270508 
	C483.675385,941.386414 470.694183,931.789978 457.814545,922.062256 
	C456.886139,921.361023 455.816162,920.731079 455.145630,919.821899 
	C443.681091,904.276245 431.614349,889.020081 431.917908,868.140564 
	C432.084686,856.669128 431.947784,845.193298 431.947784,833.870239 
	C451.563538,833.870239 471.073761,833.870239 490.320923,833.870239 
	C495.475189,846.375244 505.526581,853.352295 516.042603,859.447144 
	C530.883606,868.048523 547.440186,873.105591 564.288147,870.786499 
	C588.903137,867.398193 608.181335,854.128662 620.782532,832.207092 
	C622.033630,830.030701 622.216553,827.240295 623.118530,823.910950 
	C639.009583,822.063904 655.643799,820.130493 672.973999,818.116150 
	C673.926941,821.863892 675.297546,825.619019 675.798645,829.486755 
	C679.382874,857.150513 673.013855,882.371460 656.664856,904.994080 
	C651.887939,911.603943 646.711548,917.925903 641.958618,924.552246 
	C630.161621,940.999329 613.682495,951.528076 596.014404,961.196167 
z" data-index="5" style="opacity: 1; visibility: hidden;"></path>

<path fill="#FDFEFF" opacity="1.000000" stroke="none" d="
M854.651184,689.334229 
	C863.774048,698.584473 865.479736,710.359192 867.579102,722.018188 
	C871.685547,744.822693 868.659363,766.118469 854.509094,785.116760 
	C853.018921,787.117493 851.370117,789.000305 849.790039,790.933777 
	C837.017090,806.563721 818.667969,805.460693 804.258240,795.494629 
	C791.378723,786.586975 792.493347,767.694763 806.002625,759.725647 
	C806.762939,759.277100 807.866455,759.078979 808.742676,759.211243 
	C815.459290,760.225281 817.161621,759.756836 819.126465,753.369385 
	C823.075867,740.530334 826.474792,727.519531 829.976013,714.545959 
	C831.836304,707.652405 832.885132,700.492065 835.273743,693.799500 
	C839.473022,682.033447 844.970337,680.885681 854.651184,689.334229 
z" data-index="7" style="opacity: 1; visibility: hidden;"></path>

<path fill="#FBFDFF" opacity="1.000000" stroke="none" d="
M790.147278,759.211060 
	C784.710449,767.904968 780.824890,777.020752 783.994324,787.488220 
	C785.180847,791.407227 787.265991,795.054016 789.059937,799.091675 
	C773.136353,816.838806 753.407471,828.374634 729.132446,830.758118 
	C717.418152,831.908325 705.551392,831.494385 693.754761,831.824585 
	C690.372009,831.919250 688.653564,830.548035 688.222046,827.004944 
	C687.763855,823.242920 686.689636,819.555969 685.744568,815.190247 
	C695.784180,813.125671 705.662781,811.086792 715.544983,809.065613 
	C719.455444,808.265869 723.344482,807.264343 727.295471,806.781067 
	C733.891357,805.974304 739.081360,802.757751 743.885559,798.403442 
	C758.689453,784.985413 773.607361,771.693115 789.009216,758.339355 
	C789.740723,758.621399 789.944031,758.916260 790.147278,759.211060 
z" data-index="9" style="opacity: 1; visibility: hidden;"></path>

<path fill="#F6F9FF" opacity="1.000000" stroke="none" d="
M830.843506,581.148682 
	C830.824951,570.707214 830.824951,560.746765 830.824951,550.970459 
	C834.994873,552.781921 838.217957,555.659302 838.337646,562.167603 
	C838.933960,594.605286 839.992676,627.034790 840.968140,659.464783 
	C841.048645,662.140198 840.196960,663.471313 837.491638,663.755737 
	C834.233826,664.098206 830.997253,664.642822 828.395813,665.009155 
	C829.222656,637.055542 830.042358,609.342712 830.843506,581.148682 
z" data-index="11" style="opacity: 1; visibility: hidden;"></path>

<path fill="#D9E5FD" opacity="1.000000" stroke="none" d="
M800.773193,747.759216 
	C805.118225,742.347107 809.463196,736.934998 813.093445,732.413147 
	C811.071167,737.636780 811.727966,746.067993 801.643677,748.161133 
	C801.130920,748.107544 800.773193,747.759216 800.773193,747.759216 
z" data-index="13"></path>
<path fill="#D9E5FD" opacity="1.000000" stroke="none" d="
M790.436768,759.041443 
	C789.944031,758.916260 789.740723,758.621399 789.306152,758.187561 
	C790.833313,756.395386 792.591736,754.742249 794.674438,753.043945 
	C794.998718,752.998779 794.981567,752.982666 794.981567,752.982666 
	C793.563110,754.945679 792.144653,756.908752 790.436768,759.041443 
z" data-index="14"></path>
<path fill="#D9E5FD" opacity="1.000000" stroke="none" d="
M801.309326,748.282166 
	C800.853821,748.946106 800.219910,749.435486 799.299072,749.966980 
	C799.012146,750.009094 799.050598,750.050232 799.050598,750.050232 
	C799.427246,749.366821 799.803833,748.683411 800.476807,747.879578 
	C800.773193,747.759216 801.130920,748.107544 801.309326,748.282166 
z" data-index="15"></path>
<path fill="#D9E5FD" opacity="1.000000" stroke="none" d="
M796.036011,752.029663 
	C796.197693,751.812622 796.359375,751.595581 796.521118,751.378540 
	C796.479553,751.586609 796.437988,751.794556 796.197632,752.000183 
	C795.998779,751.997803 796.036072,752.029724 796.036011,752.029663 
z" data-index="16"></path>
<path fill="#D9E5FD" opacity="1.000000" stroke="none" d="
M795.005798,753.006836 
	C795.175110,752.713562 795.337280,752.412231 795.767761,752.070312 
	C796.036072,752.029724 795.998779,751.997803 795.981445,751.979797 
	C795.832153,752.297241 795.700256,752.632690 795.274963,752.975403 
	C794.981567,752.982666 794.998718,752.998779 795.005798,753.006836 
z" data-index="17"></path>
<path fill="#D9E5FD" opacity="1.000000" stroke="none" d="
M798.994812,749.986816 
	C798.807434,750.175293 798.637451,750.385925 798.467407,750.596619 
	C798.517883,750.389160 798.568298,750.181763 798.834717,750.012268 
	C799.050598,750.050232 799.012146,750.009094 798.994812,749.986816 
z" data-index="18"></path>
<path fill="#FDFEFF" opacity="1.000000" stroke="none" d="
M876.573975,369.561066 
	C882.211914,353.754578 888.044434,338.013885 893.418335,322.118164 
	C896.925598,311.744171 899.847900,301.167908 902.821350,290.622803 
	C903.278870,289.000275 902.926941,286.953156 902.395691,285.277954 
	C895.587219,263.806305 893.392151,241.653656 892.657166,219.304459 
	C892.400330,211.496689 892.708069,203.671204 892.711670,195.853775 
	C892.714722,189.295578 896.202271,185.080627 902.070129,183.118454 
	C916.247742,178.377426 930.310730,173.005356 944.822205,169.603333 
	C993.566772,158.175781 1042.430908,147.236832 1091.376343,136.700974 
	C1105.160645,133.733810 1119.405884,132.955521 1133.386108,130.822128 
	C1137.809082,130.147186 1139.254028,131.794495 1139.931030,135.748001 
	C1144.536011,162.636551 1149.586304,189.453354 1153.829712,216.397736 
	C1156.831543,235.458145 1158.900757,254.669708 1161.161377,273.840332 
	C1162.001709,280.966583 1160.625854,281.939667 1153.539917,283.039276 
	C1123.280640,287.734955 1093.036621,292.531891 1062.814941,297.463196 
	C1030.628052,302.715210 998.561523,308.847137 966.239380,313.023041 
	C958.458618,314.028290 952.726685,316.343933 946.823608,320.603912 
	C923.876099,337.164337 900.795227,353.539948 877.297791,369.903198 
	C876.831604,369.822052 876.573975,369.561066 876.573975,369.561066 
M943.925293,226.235275 
	C941.872925,224.815552 939.835449,223.373764 937.764832,221.981171 
	C934.524475,219.801910 930.958984,218.107956 928.050171,221.974945 
	C925.120667,225.869446 927.704224,228.790771 930.840271,231.198196 
	C935.008362,234.397842 939.199158,237.567978 943.928650,241.168335 
	C942.085693,241.978897 941.064758,242.435791 940.037598,242.878128 
	C936.876709,244.239334 935.078918,246.623886 936.158325,249.992233 
	C937.316223,253.605316 940.271484,254.451691 943.837280,253.578903 
	C945.438354,253.187027 947.089905,253.001328 948.922485,252.920685 
	C948.922485,252.920685 949.127563,253.118164 949.123169,253.857590 
	C947.174133,258.271729 945.124512,262.644989 943.307861,267.112976 
	C941.858276,270.678223 941.073975,274.516235 945.203735,276.801849 
	C949.114197,278.966125 951.779236,276.501038 953.979187,273.425262 
	C954.218384,273.090881 954.731995,272.952789 955.118286,272.723663 
	C955.109009,273.250275 955.099670,273.776886 955.090393,274.303497 
	C957.913879,274.568634 961.649780,276.042419 963.320740,274.780914 
	C965.239868,273.332123 965.749268,269.509369 966.084717,266.626312 
	C966.364746,264.220215 965.510010,261.682068 965.004089,258.120087 
	C969.236816,261.396606 972.278503,264.327362 975.854309,266.280426 
	C977.690674,267.283386 980.821655,267.256317 982.723694,266.347321 
	C984.088745,265.694916 985.303955,262.602844 984.936035,260.971313 
	C984.441711,258.779541 982.616638,256.676758 980.896179,255.020676 
	C978.101440,252.330627 974.928040,250.033951 971.205383,246.991730 
	C976.541565,245.657867 980.903503,244.717712 985.169495,243.453537 
	C988.563782,242.447678 991.547607,240.535721 990.735046,236.390564 
	C989.866089,231.957443 986.262268,231.402527 982.530701,231.940796 
	C979.166077,232.426147 975.853821,233.274384 971.761292,234.118805 
	C973.279846,231.132904 974.371033,228.907333 975.533691,226.719727 
	C977.386963,223.232666 978.646667,219.553574 974.373413,217.158218 
	C970.179321,214.807190 967.490967,217.550858 965.518738,221.032974 
	C963.538513,224.529312 961.652405,228.078949 959.592529,231.847519 
	C958.021606,227.390488 957.127563,223.193237 955.061646,219.686386 
	C954.013611,217.907333 950.553772,216.172775 948.732605,216.625229 
	C947.023071,217.049973 945.847107,220.292770 944.821106,222.476349 
	C944.398010,223.376755 944.979553,224.749237 944.851562,226.141251 
	C944.851562,226.141251 944.600525,226.377106 943.925293,226.235275 
M1108.434448,236.442383 
	C1109.614990,240.377213 1110.052490,245.119247 1115.522583,245.391754 
	C1119.907349,245.610184 1121.010498,242.109894 1122.089966,238.080231 
	C1123.095459,238.732742 1123.411865,239.779114 1124.095825,240.451981 
	C1126.602417,242.917969 1129.535278,243.974655 1132.546997,241.513718 
	C1135.494873,239.104935 1135.265259,236.008911 1133.439575,232.986633 
	C1132.410889,231.283813 1131.246704,229.643906 1129.987793,228.103027 
	C1126.987671,224.430954 1123.894897,220.834503 1120.482544,216.783661 
	C1124.084106,215.751266 1127.112305,215.016113 1130.046753,214.008224 
	C1133.647339,212.771439 1136.467529,210.589401 1135.280884,206.295471 
	C1134.163452,202.251816 1130.750244,201.919205 1127.198608,202.399017 
	C1125.772949,202.591599 1124.356323,202.852219 1122.158691,203.207458 
	C1123.790283,199.461136 1125.098511,196.447998 1126.414429,193.438278 
	C1128.638672,188.351562 1128.140015,184.843445 1124.669189,183.545822 
	C1119.838867,181.739944 1117.721436,185.070541 1115.904053,188.682846 
	C1114.543579,191.386917 1113.176270,194.087433 1111.444214,197.517563 
	C1110.347534,194.025864 1109.741821,191.419785 1108.713135,188.993057 
	C1107.404907,185.906860 1104.984375,184.165207 1101.534180,185.235672 
	C1098.278931,186.245667 1097.492188,188.919708 1097.934448,192.033218 
	C1098.215332,194.011154 1098.617798,195.971817 1099.070801,198.535004 
	C1094.980225,196.556412 1091.813232,194.720001 1088.429321,193.471634 
	C1084.904419,192.171249 1081.167847,192.253937 1079.579346,196.408981 
	C1077.968750,200.621765 1080.694214,202.609711 1084.309326,204.254929 
	C1087.895752,205.887070 1091.147583,208.254227 1095.558472,210.908096 
	C1092.000732,212.171432 1089.980713,212.842911 1087.995117,213.604050 
	C1084.510986,214.939606 1082.856323,217.532440 1084.089478,221.079956 
	C1085.255981,224.435471 1088.180420,225.177078 1091.465454,224.437057 
	C1093.783691,223.914810 1096.076904,223.281265 1099.253662,222.476379 
	C1096.357666,228.236206 1093.841309,232.915527 1091.636230,237.737244 
	C1090.077515,241.145477 1090.510376,244.448868 1094.170532,246.270691 
	C1097.581421,247.968399 1100.355591,246.481888 1102.225098,243.449982 
	C1103.791626,240.909393 1105.057983,238.184647 1106.563965,235.603668 
	C1106.679810,235.404938 1107.641602,235.699753 1108.434448,236.442383 
M1044.037720,216.698273 
	C1045.345703,213.459946 1046.934937,210.301376 1047.881592,206.960693 
	C1048.813110,203.673843 1048.234741,200.428574 1044.417725,199.224182 
	C1040.970459,198.136429 1038.669800,199.979813 1037.233521,203.025818 
	C1036.043945,205.548615 1034.925049,208.104782 1033.688110,210.837997 
	C1030.608643,206.369385 1031.476562,198.289688 1023.498657,199.648361 
	C1017.721191,200.632278 1019.754700,205.964600 1020.107788,210.371170 
	C1018.782532,209.675873 1017.889282,209.328079 1017.132080,208.789124 
	C1013.806702,206.422256 1010.411743,204.532166 1007.016968,208.485794 
	C1004.507568,211.408356 1005.779968,214.486160 1010.579834,218.360840 
	C1013.765198,220.932144 1016.796936,223.693649 1018.894714,225.504486 
	C1016.933777,228.776642 1013.939331,231.545456 1014.267334,233.839142 
	C1014.610046,236.234894 1018.150513,238.173309 1020.960510,240.977798 
	C1019.928406,243.588776 1018.222168,247.534622 1016.813049,251.583847 
	C1015.636902,254.963776 1016.431152,258.080109 1019.843323,259.593811 
	C1023.353088,261.150818 1025.982178,259.290253 1027.730469,256.248322 
	C1029.004395,254.031830 1030.020020,251.666916 1031.266479,249.133148 
	C1033.909546,254.191101 1032.497070,261.687866 1040.151367,262.023224 
	C1045.898804,262.274994 1045.391846,256.855103 1046.155518,252.504318 
	C1047.832031,253.863831 1048.987305,255.542908 1050.374390,255.763245 
	C1052.884277,256.162018 1056.465942,256.658508 1057.862305,255.311935 
	C1059.280029,253.944794 1059.205811,250.257080 1058.639893,247.855469 
	C1058.200928,245.992889 1056.049194,244.498657 1054.570068,242.923935 
	C1051.568115,239.727798 1048.505981,236.588043 1045.011230,232.948685 
	C1048.840820,231.785446 1051.853394,230.953537 1054.808472,229.951828 
	C1058.496704,228.701553 1061.221558,226.374878 1059.921753,222.169952 
	C1058.621094,217.961929 1055.031738,217.705750 1051.291626,218.595306 
	C1048.654053,219.222656 1046.026855,219.894165 1042.780518,220.698105 
	C1043.294922,218.993134 1043.527588,218.221756 1044.037720,216.698273 
z" data-index="19" style="opacity: 1;"></path>
<path fill="#FDFEFF" opacity="1.000000" stroke="none" d="
M876.956665,369.956085 
	C876.882935,370.300812 876.684021,370.511475 876.485168,370.722168 
	C876.408875,370.450592 876.332520,370.179047 876.415039,369.734253 
	C876.573975,369.561066 876.831604,369.822052 876.956665,369.956085 
z" data-index="20"></path>
<path fill="#3678F7" opacity="1.000000" stroke="none" d="
M772.710205,397.315125 
	C774.640625,399.760468 776.556519,401.773010 778.070251,404.052673 
	C779.595764,406.350159 781.394897,408.777344 781.919189,411.380341 
	C787.406067,438.621033 792.686951,465.903412 797.967407,493.185394 
	C800.292542,505.197876 803.260376,517.153931 804.541687,529.283020 
	C806.104370,544.075195 806.734863,559.019470 806.813660,573.903015 
	C806.959290,601.390930 806.944885,628.901550 805.968506,656.366150 
	C805.272766,675.936768 800.250305,694.872864 793.148560,713.124756 
	C791.448669,717.493652 788.342773,721.315613 785.880310,725.387268 
	C785.549011,725.934998 784.816711,726.555359 784.914612,727.000244 
	C786.459900,734.020447 781.373413,738.002380 777.358398,741.831482 
	C764.346252,754.241516 750.874756,766.170288 737.565613,778.268372 
	C735.843262,779.833923 734.189331,781.561523 732.221130,782.743591 
	C730.487488,783.784790 728.398010,784.545715 726.394958,784.755920 
	C723.058105,785.105957 719.623596,784.591309 716.302307,785.011230 
	C702.275208,786.784607 688.299011,788.972473 674.259949,790.635925 
	C637.879333,794.946533 601.564331,800.321289 565.055542,802.895630 
	C529.034668,805.435547 492.807861,805.046509 456.673065,806.005066 
	C454.414062,806.065002 452.113861,807.161255 449.930664,806.913330 
	C446.128723,806.481628 441.940094,806.205872 438.726807,804.409790 
	C425.795654,797.182129 413.175507,789.397949 400.442719,781.815613 
	C400.013947,781.560181 399.640717,781.192932 399.190063,780.995728 
	C386.058319,775.250244 378.857117,764.043884 373.018036,751.873596 
	C356.224640,716.871582 344.894470,680.086914 336.874969,642.127258 
	C330.369415,611.333740 326.979401,580.344727 327.252686,548.893921 
	C327.558258,513.734253 327.010712,478.553711 328.073181,443.419708 
	C328.631622,424.953033 334.406372,407.286499 348.730316,394.570038 
	C356.517242,387.656982 366.002777,382.275970 375.439667,377.675812 
	C401.562714,364.941833 428.739777,355.021210 457.623138,350.490387 
	C461.888611,349.821289 466.228912,349.405853 470.543152,349.323944 
	C476.926880,349.202728 482.781677,351.808014 485.877106,357.066986 
	C497.552856,376.903198 513.475708,393.374817 527.648926,411.226349 
	C531.044739,415.503479 534.018188,421.553711 538.479187,423.131409 
	C542.698669,424.623688 548.599915,421.226746 553.793213,420.130463 
	C561.772278,418.446106 569.744995,416.682922 577.790344,415.386993 
	C580.809631,414.900635 581.812988,413.556396 582.667603,410.868286 
	C590.377808,386.616974 598.266663,362.422516 606.038452,338.190613 
	C606.406555,337.042816 606.444824,335.631317 606.158020,334.459778 
	C605.123169,330.232330 606.658936,327.527985 610.800354,326.569000 
	C633.008667,321.426636 655.217773,316.283051 677.488342,311.422455 
	C679.634827,310.954010 682.396912,312.026031 684.548767,313.058899 
	C707.806274,324.222015 726.524231,341.342255 743.658508,360.052795 
	C754.180420,371.542664 762.958313,384.629639 772.710205,397.315125 
M786.722351,695.050476 
	C788.491028,686.581299 790.957825,678.189453 791.906738,669.629395 
	C795.883118,633.758301 795.779541,597.678223 793.176636,561.826172 
	C790.987122,531.666870 786.050415,501.656921 781.242126,471.755768 
	C778.126038,452.377411 776.577942,432.419342 766.903137,414.604889 
	C763.811218,408.911743 761.299988,402.833099 757.665649,397.517029 
	C742.998901,376.063965 725.257996,357.329590 705.294434,340.772095 
	C698.536499,335.167114 691.007629,330.460999 683.623169,325.664185 
	C681.847595,324.510834 679.096252,323.883972 677.043152,324.286774 
	C659.078979,327.810730 641.162537,331.582214 623.265320,335.434998 
	C621.943665,335.719543 620.236328,336.969482 619.795410,338.169891 
	C614.235901,353.306885 608.722290,368.464813 603.518311,383.726929 
	C599.868896,394.429718 596.258545,405.185577 593.488098,416.134674 
	C591.525024,423.892700 590.330566,425.633179 582.561157,427.159485 
	C566.730652,430.269318 550.957458,433.670868 535.160706,436.952484 
	C533.372925,437.323883 531.598206,437.924042 529.795410,438.024567 
	C525.210938,438.280212 522.155518,434.649994 524.097168,430.646973 
	C525.540222,427.671906 524.530823,426.073486 522.832642,424.114929 
	C521.306824,422.355225 519.906555,420.487274 518.431946,418.682526 
	C505.687134,403.084625 492.434784,387.867767 480.358551,371.768555 
	C471.591888,360.081451 472.285156,359.561279 457.753174,362.389069 
	C457.589935,362.420837 457.432098,362.481079 457.268677,362.511505 
	C430.368439,367.520691 405.293121,377.806580 380.625519,389.199890 
	C374.183197,392.175446 367.524353,395.100281 361.901184,399.301483 
	C357.243011,402.781738 353.106323,407.623871 350.240967,412.709106 
	C343.096252,425.389221 339.947266,439.238220 340.043793,453.916992 
	C340.227905,481.908539 340.523682,509.912842 339.911163,537.892944 
	C339.007904,579.155823 344.011505,619.604980 353.940796,659.604431 
	C361.258728,689.084167 370.571930,717.841187 383.014771,745.542847 
	C386.444427,753.178162 389.986908,760.782227 397.803864,765.486877 
	C411.065674,773.468689 424.062408,781.893677 437.108368,790.229614 
	C441.108887,792.785767 445.072510,794.182068 450.081604,794.027039 
	C483.872375,792.981140 517.744568,793.386658 551.453430,791.205261 
	C585.327209,789.013184 619.062744,784.547424 652.818420,780.721558 
	C672.330139,778.510132 691.770081,775.652649 711.223938,772.953247 
	C715.818420,772.315613 720.364319,771.251160 724.882812,770.174133 
	C727.307007,769.596313 730.175171,769.190613 731.900818,767.651123 
	C741.966003,758.672058 751.973083,749.603394 761.557190,740.117798 
	C768.310181,733.434143 775.667297,727.178650 778.394897,717.217285 
	C780.398682,709.899475 783.727478,702.944458 786.722351,695.050476 
z" data-index="21" style="opacity: 1;"></path>
<path fill="#D9E5FD" opacity="1.000000" stroke="none" d="
M527.941895,311.967957 
	C526.708801,311.023865 525.832520,310.085785 524.956299,309.147705 
	C525.255249,308.752289 525.554199,308.356903 525.853088,307.961487 
	C527.029480,308.641388 528.232666,309.284424 529.324890,310.079895 
	C529.401917,310.136017 528.659973,311.316437 527.941895,311.967957 
z" data-index="22"></path>
<path fill="#D9E5FD" opacity="1.000000" stroke="none" d="
M520.990173,304.012939 
	C520.860229,303.858063 520.730225,303.703156 520.600281,303.548279 
	C520.698975,303.595886 520.797607,303.643494 520.948120,303.845581 
	C521.000000,304.000092 520.990173,304.012939 520.990173,304.012939 
z" data-index="23"></path>
<path fill="#D9E5FD" opacity="1.000000" stroke="none" d="
M524.007935,305.989990 
	C524.129944,306.148438 524.251892,306.306915 524.373840,306.465393 
	C524.278931,306.413971 524.184021,306.362549 524.044312,306.155762 
	C523.999573,306.000427 524.007935,305.989990 524.007935,305.989990 
z" data-index="24"></path>
<path fill="#D9E5FD" opacity="1.000000" stroke="none" d="
M523.994019,306.005127 
	C523.858704,305.860138 523.728943,305.710510 523.599243,305.560852 
	C523.695312,305.607300 523.791382,305.653778 523.947693,305.845123 
	C524.007935,305.989990 523.999573,306.000427 523.994019,306.005127 
z" data-index="25"></path>
<path fill="#D9E5FD" opacity="1.000000" stroke="none" d="
M518.448242,302.540924 
	C518.408936,302.479584 518.487488,302.602264 518.448242,302.540924 
z" data-index="26"></path>
<path fill="#D9E5FD" opacity="1.000000" stroke="none" d="
M521.006104,303.994995 
	C521.138611,304.146606 521.265015,304.303314 521.391418,304.459991 
	C521.294617,304.410553 521.197754,304.361145 521.045532,304.162323 
	C520.990173,304.012939 521.000000,304.000092 521.006104,303.994995 
z" data-index="27"></path>
<path fill="#3677F7" opacity="1.000000" stroke="none" d="
M1108.322266,236.103760 
	C1107.641602,235.699753 1106.679810,235.404938 1106.563965,235.603668 
	C1105.057983,238.184647 1103.791626,240.909393 1102.225098,243.449982 
	C1100.355591,246.481888 1097.581421,247.968399 1094.170532,246.270691 
	C1090.510376,244.448868 1090.077515,241.145477 1091.636230,237.737244 
	C1093.841309,232.915527 1096.357666,228.236206 1099.253662,222.476379 
	C1096.076904,223.281265 1093.783691,223.914810 1091.465454,224.437057 
	C1088.180420,225.177078 1085.255981,224.435471 1084.089478,221.079956 
	C1082.856323,217.532440 1084.510986,214.939606 1087.995117,213.604050 
	C1089.980713,212.842911 1092.000732,212.171432 1095.558472,210.908096 
	C1091.147583,208.254227 1087.895752,205.887070 1084.309326,204.254929 
	C1080.694214,202.609711 1077.968750,200.621765 1079.579346,196.408981 
	C1081.167847,192.253937 1084.904419,192.171249 1088.429321,193.471634 
	C1091.813232,194.720001 1094.980225,196.556412 1099.070801,198.535004 
	C1098.617798,195.971817 1098.215332,194.011154 1097.934448,192.033218 
	C1097.492188,188.919708 1098.278931,186.245667 1101.534180,185.235672 
	C1104.984375,184.165207 1107.404907,185.906860 1108.713135,188.993057 
	C1109.741821,191.419785 1110.347534,194.025864 1111.444214,197.517563 
	C1113.176270,194.087433 1114.543579,191.386917 1115.904053,188.682846 
	C1117.721436,185.070541 1119.838867,181.739944 1124.669189,183.545822 
	C1128.140015,184.843445 1128.638672,188.351562 1126.414429,193.438278 
	C1125.098511,196.447998 1123.790283,199.461136 1122.158691,203.207458 
	C1124.356323,202.852219 1125.772949,202.591599 1127.198608,202.399017 
	C1130.750244,201.919205 1134.163452,202.251816 1135.280884,206.295471 
	C1136.467529,210.589401 1133.647339,212.771439 1130.046753,214.008224 
	C1127.112305,215.016113 1124.084106,215.751266 1120.482544,216.783661 
	C1123.894897,220.834503 1126.987671,224.430954 1129.987793,228.103027 
	C1131.246704,229.643906 1132.410889,231.283813 1133.439575,232.986633 
	C1135.265259,236.008911 1135.494873,239.104935 1132.546997,241.513718 
	C1129.535278,243.974655 1126.602417,242.917969 1124.095825,240.451981 
	C1123.411865,239.779114 1123.095459,238.732742 1122.089966,238.080231 
	C1121.010498,242.109894 1119.907349,245.610184 1115.522583,245.391754 
	C1110.052490,245.119247 1109.614990,240.377213 1108.322266,236.103760 
z" data-index="28"></path>
<path fill="#3677F7" opacity="1.000000" stroke="none" d="
M945.104126,225.906967 
	C944.979553,224.749237 944.398010,223.376755 944.821106,222.476349 
	C945.847107,220.292770 947.023071,217.049973 948.732605,216.625229 
	C950.553772,216.172775 954.013611,217.907333 955.061646,219.686386 
	C957.127563,223.193237 958.021606,227.390488 959.592529,231.847519 
	C961.652405,228.078949 963.538513,224.529312 965.518738,221.032974 
	C967.490967,217.550858 970.179321,214.807190 974.373413,217.158218 
	C978.646667,219.553574 977.386963,223.232666 975.533691,226.719727 
	C974.371033,228.907333 973.279846,231.132904 971.761292,234.118805 
	C975.853821,233.274384 979.166077,232.426147 982.530701,231.940796 
	C986.262268,231.402527 989.866089,231.957443 990.735046,236.390564 
	C991.547607,240.535721 988.563782,242.447678 985.169495,243.453537 
	C980.903503,244.717712 976.541565,245.657867 971.205383,246.991730 
	C974.928040,250.033951 978.101440,252.330627 980.896179,255.020676 
	C982.616638,256.676758 984.441711,258.779541 984.936035,260.971313 
	C985.303955,262.602844 984.088745,265.694916 982.723694,266.347321 
	C980.821655,267.256317 977.690674,267.283386 975.854309,266.280426 
	C972.278503,264.327362 969.236816,261.396606 965.004089,258.120087 
	C965.510010,261.682068 966.364746,264.220215 966.084717,266.626312 
	C965.749268,269.509369 965.239868,273.332123 963.320740,274.780914 
	C961.649780,276.042419 957.913879,274.568634 955.090393,274.303497 
	C955.099670,273.776886 955.109009,273.250275 955.118286,272.723663 
	C954.731995,272.952789 954.218384,273.090881 953.979187,273.425262 
	C951.779236,276.501038 949.114197,278.966125 945.203735,276.801849 
	C941.073975,274.516235 941.858276,270.678223 943.307861,267.112976 
	C945.124512,262.644989 947.174133,258.271729 949.308838,253.414764 
	C949.442200,252.757889 949.389954,252.543823 949.337646,252.329773 
	C949.131287,252.460526 948.924866,252.591293 948.718506,252.722061 
	C947.089905,253.001328 945.438354,253.187027 943.837280,253.578903 
	C940.271484,254.451691 937.316223,253.605316 936.158325,249.992233 
	C935.078918,246.623886 936.876709,244.239334 940.037598,242.878128 
	C941.064758,242.435791 942.085693,241.978897 943.928650,241.168335 
	C939.199158,237.567978 935.008362,234.397842 930.840271,231.198196 
	C927.704224,228.790771 925.120667,225.869446 928.050171,221.974945 
	C930.958984,218.107956 934.524475,219.801910 937.764832,221.981171 
	C939.835449,223.373764 941.872925,224.815552 944.406616,226.481827 
	C945.136230,226.668564 945.384399,226.608734 945.632690,226.548889 
	C945.456482,226.334900 945.280273,226.120926 945.104126,225.906967 
z" data-index="29" style="opacity: 1;"></path>
<path fill="#3677F7" opacity="1.000000" stroke="none" d="
M1043.899048,217.074341 
	C1043.527588,218.221756 1043.294922,218.993134 1042.780518,220.698105 
	C1046.026855,219.894165 1048.654053,219.222656 1051.291626,218.595306 
	C1055.031738,217.705750 1058.621094,217.961929 1059.921753,222.169952 
	C1061.221558,226.374878 1058.496704,228.701553 1054.808472,229.951828 
	C1051.853394,230.953537 1048.840820,231.785446 1045.011230,232.948685 
	C1048.505981,236.588043 1051.568115,239.727798 1054.570068,242.923935 
	C1056.049194,244.498657 1058.200928,245.992889 1058.639893,247.855469 
	C1059.205811,250.257080 1059.280029,253.944794 1057.862305,255.311935 
	C1056.465942,256.658508 1052.884277,256.162018 1050.374390,255.763245 
	C1048.987305,255.542908 1047.832031,253.863831 1046.155518,252.504318 
	C1045.391846,256.855103 1045.898804,262.274994 1040.151367,262.023224 
	C1032.497070,261.687866 1033.909546,254.191101 1031.266479,249.133148 
	C1030.020020,251.666916 1029.004395,254.031830 1027.730469,256.248322 
	C1025.982178,259.290253 1023.353088,261.150818 1019.843323,259.593811 
	C1016.431152,258.080109 1015.636902,254.963776 1016.813049,251.583847 
	C1018.222168,247.534622 1019.928406,243.588776 1020.960510,240.977798 
	C1018.150513,238.173309 1014.610046,236.234894 1014.267334,233.839142 
	C1013.939331,231.545456 1016.933777,228.776642 1018.894714,225.504486 
	C1016.796936,223.693649 1013.765198,220.932144 1010.579834,218.360840 
	C1005.779968,214.486160 1004.507568,211.408356 1007.016968,208.485794 
	C1010.411743,204.532166 1013.806702,206.422256 1017.132080,208.789124 
	C1017.889282,209.328079 1018.782532,209.675873 1020.107788,210.371170 
	C1019.754700,205.964600 1017.721191,200.632278 1023.498657,199.648361 
	C1031.476562,198.289688 1030.608643,206.369385 1033.688110,210.837997 
	C1034.925049,208.104782 1036.043945,205.548615 1037.233521,203.025818 
	C1038.669800,199.979813 1040.970459,198.136429 1044.417725,199.224182 
	C1048.234741,200.428574 1048.813110,203.673843 1047.881592,206.960693 
	C1046.934937,210.301376 1045.345703,213.459946 1043.899048,217.074341 
M1045.491577,251.855453 
	C1045.491577,251.855453 1045.594849,251.538666 1045.594849,251.538666 
	C1045.594849,251.538666 1045.348511,251.628662 1045.491577,251.855453 
z" data-index="30"></path>

<path fill="#FDFEFF" opacity="1.000000" stroke="none" d="
M944.977844,226.024109 
	C945.280273,226.120926 945.456482,226.334900 945.632690,226.548889 
	C945.384399,226.608734 945.136230,226.668564 944.744263,226.552734 
	C944.600525,226.377106 944.851562,226.141251 944.977844,226.024109 
z" data-index="32"></path>
<path fill="#FDFEFF" opacity="1.000000" stroke="none" d="
M948.820496,252.821381 
	C948.924866,252.591293 949.131287,252.460526 949.337646,252.329773 
	C949.389954,252.543823 949.442200,252.757889 949.311035,253.045044 
	C949.127563,253.118164 948.922485,252.920685 948.820496,252.821381 
z" data-index="33"></path>
<path fill="#FDFEFF" opacity="1.000000" stroke="none" d="
M1045.420044,251.742065 
	C1045.348511,251.628662 1045.594849,251.538666 1045.594849,251.538666 
	C1045.594849,251.538666 1045.491577,251.855453 1045.420044,251.742065 
z" data-index="34"></path>
<path fill="#3376F7" opacity="1.000000" stroke="none" d="
M528.440430,505.577240 
	C546.726501,530.572998 556.737122,558.388184 558.587097,588.763794 
	C559.789978,608.513306 559.821899,628.416382 558.946289,648.187256 
	C558.067200,668.036682 550.953247,686.411316 539.414612,702.468689 
	C527.781189,718.658020 510.235474,723.132324 491.270325,722.579407 
	C484.668762,722.386902 478.052185,720.992676 471.543427,719.655762 
	C451.257202,715.488831 436.662415,703.360840 425.343872,686.499878 
	C405.957397,657.620178 400.587921,625.623718 403.325836,591.611938 
	C405.221527,568.063049 411.005920,545.677368 422.479034,524.960388 
	C429.640381,512.029114 438.788055,500.760712 450.734528,491.722717 
	C469.246674,477.717438 505.610931,476.932678 522.417664,498.424072 
	C524.263184,500.784027 526.279907,503.010132 528.440430,505.577240 
M462.329895,498.097839 
	C447.800812,507.130768 438.279938,520.417358 431.022980,535.483826 
	C420.672180,556.973450 416.113983,579.818359 415.425842,603.580200 
	C414.548157,633.886414 421.875427,661.603210 440.642212,685.842590 
	C447.088531,694.168762 454.752014,701.441162 464.978271,704.200928 
	C475.485168,707.036560 486.460663,709.654663 497.227142,709.639099 
	C511.898071,709.617859 525.450684,704.376587 532.375000,690.016663 
	C537.400452,679.594788 542.768860,668.718018 544.544128,657.499634 
	C546.994568,642.015381 546.217590,626.018921 546.782471,610.240417 
	C546.826660,609.005554 546.552856,607.759277 546.428711,606.536926 
	C534.479431,608.594727 524.344299,604.413330 514.836670,598.707520 
	C485.084167,580.852112 470.514435,552.656067 463.070831,520.176697 
	C461.453949,513.121460 462.906281,505.362823 463.293579,498.119202 
	C463.354919,497.910675 463.416260,497.702118 463.477631,497.493591 
	C463.325226,497.673370 463.172821,497.853119 462.329895,498.097839 
z" data-index="35" style="opacity: 1;"></path>
<path fill="#3476F7" opacity="1.000000" stroke="none" d="
M643.070312,669.897461 
	C627.570740,642.824524 623.989990,613.845581 626.328247,583.657776 
	C628.139465,560.275269 633.913086,538.049988 645.213318,517.444153 
	C652.318909,504.487122 661.222778,492.947906 673.277222,484.038727 
	C674.879883,482.854187 676.037354,480.436737 676.455627,478.396454 
	C677.819153,471.745911 682.017700,470.210571 687.557129,474.321320 
	C688.897339,475.315918 691.137390,475.444824 692.948975,475.398224 
	C701.560486,475.176575 710.355408,473.463837 718.734375,474.686005 
	C734.491394,476.984222 744.946289,487.997772 753.468323,500.428406 
	C769.995483,524.535828 779.328186,551.564209 781.513123,580.540955 
	C783.011841,600.416260 782.844360,620.516846 781.920166,640.447083 
	C781.000671,660.277161 773.861267,678.644104 762.266907,694.673889 
	C750.827332,710.489746 733.604004,714.997437 715.023926,714.612061 
	C708.098816,714.468384 701.144165,712.989014 694.313171,711.583374 
	C674.212830,707.447083 659.586792,695.505798 648.536560,678.691833 
	C646.708374,675.910156 645.003113,673.047729 643.070312,669.897461 
M653.302979,662.150452 
	C655.303223,665.415466 657.273071,668.699585 659.308411,671.942505 
	C673.983582,695.324524 696.517151,702.733154 722.412109,701.664124 
	C734.210022,701.177063 745.532410,697.059998 752.631470,686.503357 
	C761.291809,673.624878 767.782959,659.285278 768.653931,643.924377 
	C769.914185,621.698120 768.828247,599.338257 768.690491,577.035767 
	C768.686035,576.311829 768.105164,575.591492 768.110352,575.603516 
	C745.145691,574.701782 724.904907,568.196960 708.340332,552.781921 
	C691.912415,537.493958 682.199463,518.244995 677.584717,494.773102 
	C672.835388,500.245514 668.495239,504.578064 664.927124,509.473297 
	C649.397156,530.779907 642.031921,555.091492 639.387207,581.022217 
	C636.525574,609.079041 639.189209,636.234558 653.302979,662.150452 
z" data-index="36" style="opacity: 1;"></path>
<path fill="#3778F7" opacity="1.000000" stroke="none" d="
M410.530762,462.437012 
	C407.900055,463.606476 405.649811,464.693329 403.325745,465.588593 
	C399.952393,466.888092 396.474426,467.127563 394.644379,463.402435 
	C392.661774,459.366791 395.120697,456.766205 398.615204,455.075409 
	C418.897827,445.261658 440.095856,438.940247 462.791718,438.403015 
	C466.118774,438.324249 469.446930,438.180695 472.773346,438.209534 
	C478.288635,438.257385 481.429382,440.492432 481.569824,444.313690 
	C481.715332,448.272614 478.439087,450.674530 472.706879,450.971405 
	C463.412659,451.452728 453.932831,451.030945 444.878052,452.782593 
	C433.363983,455.010010 422.195648,459.024689 410.530762,462.437012 
z" data-index="37" style="opacity: 1;"></path>
<path fill="#3778F7" opacity="1.000000" stroke="none" d="
M686.573242,409.584412 
	C698.088196,407.511963 709.204712,405.542938 720.333130,403.644318 
	C721.789734,403.395813 723.334717,403.303741 724.791992,403.495239 
	C727.985046,403.914825 730.636353,405.272369 730.966003,408.904358 
	C731.291199,412.488068 729.138794,414.593750 725.953369,415.362274 
	C722.741821,416.137024 719.360107,416.186981 716.125854,416.890045 
	C699.274536,420.552917 682.426392,424.235840 665.629150,428.136047 
	C662.614624,428.836060 659.723938,430.372589 656.990845,431.905731 
	C653.524597,433.850220 650.182556,434.599487 647.897278,430.741699 
	C645.667297,426.977020 647.828918,423.997253 650.983337,421.886810 
	C655.628906,418.778778 660.417725,415.884766 664.213013,413.488312 
	C667.858704,413.314392 670.822205,413.503784 673.644836,412.960785 
	C677.874573,412.147064 682.005493,410.819061 686.573242,409.584412 
z" data-index="38"></path>
<path fill="#3678F7" opacity="1.000000" stroke="none" d="
M575.645874,727.369629 
	C573.075134,725.497559 570.547058,724.074280 568.625610,722.069641 
	C566.207275,719.546631 565.676575,716.249268 568.187378,713.515259 
	C570.819092,710.649536 573.634827,711.559570 576.544678,713.799805 
	C586.344238,721.344482 597.515259,725.116699 609.897583,725.203674 
	C618.133545,725.261536 624.674988,721.855713 629.686462,715.388184 
	C630.399658,714.467712 631.080017,713.518494 631.839111,712.637451 
	C634.303040,709.777771 637.362854,708.592651 640.651428,710.806458 
	C644.281616,713.250244 643.977051,716.865906 641.847656,720.063293 
	C633.839661,732.087524 622.599609,738.081238 608.045410,737.419922 
	C596.514221,736.895874 585.850098,733.462280 575.645874,727.369629 
z" data-index="39" style="opacity: 1;"></path>
<path fill="#FEFEFF" opacity="1.000000" stroke="none" d="
M462.945007,497.928162 
	C462.906281,505.362823 461.453949,513.121460 463.070831,520.176697 
	C470.514435,552.656067 485.084167,580.852112 514.836670,598.707520 
	C524.344299,604.413330 534.479431,608.594727 546.428711,606.536926 
	C546.552856,607.759277 546.826660,609.005554 546.782471,610.240417 
	C546.217590,626.018921 546.994568,642.015381 544.544128,657.499634 
	C542.768860,668.718018 537.400452,679.594788 532.375000,690.016663 
	C525.450684,704.376587 511.898071,709.617859 497.227142,709.639099 
	C486.460663,709.654663 475.485168,707.036560 464.978271,704.200928 
	C454.752014,701.441162 447.088531,694.168762 440.642212,685.842590 
	C421.875427,661.603210 414.548157,633.886414 415.425842,603.580200 
	C416.113983,579.818359 420.672180,556.973450 431.022980,535.483826 
	C438.279938,520.417358 447.800812,507.130768 462.656128,498.039307 
	C462.982330,497.980774 462.944977,497.928162 462.945007,497.928162 
z" data-index="40" style="opacity: 1; visibility: visible;"></path>
<path fill="#FEFEFF" opacity="1.000000" stroke="none" d="
M463.001373,498.006836 
	C463.172821,497.853119 463.325226,497.673370 463.477600,497.493591 
	C463.416260,497.702118 463.354919,497.910675 463.119263,498.023682 
	C462.944977,497.928162 462.982330,497.980774 463.001373,498.006836 
z" data-index="41"></path>
<path fill="#FEFEFF" opacity="1.000000" stroke="none" d="
M653.129517,661.826416 
	C639.189209,636.234558 636.525574,609.079041 639.387207,581.022217 
	C642.031921,555.091492 649.397156,530.779907 664.927124,509.473297 
	C668.495239,504.578064 672.835388,500.245514 677.584717,494.773102 
	C682.199463,518.244995 691.912415,537.493958 708.340332,552.781921 
	C724.904907,568.196960 745.145691,574.701782 768.110352,575.603516 
	C768.105164,575.591492 768.686035,576.311829 768.690491,577.035767 
	C768.828247,599.338257 769.914185,621.698120 768.653931,643.924377 
	C767.782959,659.285278 761.291809,673.624878 752.631470,686.503357 
	C745.532410,697.059998 734.210022,701.177063 722.412109,701.664124 
	C696.517151,702.733154 673.983582,695.324524 659.308411,671.942505 
	C657.273071,668.699585 655.303223,665.415466 653.129517,661.826416 
z" data-index="42" style="opacity: 1; visibility: visible;"></path>
</svg>